<?xml version="1.0" encoding="iso-8859-1"?>
<!-- Generator: Adobe Illustrator 19.0.0, SVG Export Plug-In . SVG Version: 6.00 Build 0)  -->
<svg version="1.1" id="Capa_1" xmlns="http://www.w3.org/2000/svg" xmlns:xlink="http://www.w3.org/1999/xlink" x="0px" y="0px"
	 viewBox="0 0 512 512" style="enable-background:new 0 0 512 512;" xml:space="preserve">
<g>
	<g>
		<path d="M372.854,204.185l-24.25,16.167c15.084,22.599,15.071,51.815-0.015,74.427l24.25,16.167
			C394.484,278.513,394.484,236.604,372.854,204.185z"/>
	</g>
</g>
<g>
	<g>
		<path d="M468.844,139.52l-6.532-9.805l-24.25,16.167l6.532,9.805c41.269,61.876,41.269,141.854-0.015,203.758l-6.518,9.776
			l24.25,16.167l6.518-9.776C516.659,303.888,516.659,211.215,468.844,139.52z"/>
	</g>
</g>
<g>
	<g>
		<path d="M421.342,171.839l-6.532-9.805L390.56,178.2l6.532,9.805c28.177,42.251,28.177,96.842,0,139.093l-6.532,9.805
			l24.25,16.167l6.532-9.805C456.066,291.193,456.066,223.91,421.342,171.839z"/>
	</g>
</g>
<g>
	<g>
		<rect x="7.297" y="155.547" width="116.58" height="203.82"/>
	</g>
</g>
<g>
	<g>
		<polygon points="153.021,139.81 153.021,374.928 327.891,512 327.891,0 		"/>
	</g>
</g>
<g>
</g>
<g>
</g>
<g>
</g>
<g>
</g>
<g>
</g>
<g>
</g>
<g>
</g>
<g>
</g>
<g>
</g>
<g>
</g>
<g>
</g>
<g>
</g>
<g>
</g>
<g>
</g>
<g>
</g>
</svg>
